%
M48
M72
T01C0.02000
T02C0.02756
T03C0.03150
T04C0.03200
T05C0.03504
T06C0.03543
T07C0.03937
T08C0.04000
T09C0.04016
T10C0.04400
T11C0.04724
T12C0.05900
T13C0.06299
T14C0.06417
T15C0.10827
T16C0.12598
T17C0.12795
T18C0.12800
T19C0.13500
%
T01
X312500Y254000
X245500Y293000
X223500Y321000
X469500Y328000
X476500Y304000
T02
X320000Y278500
X320000Y268500
X288500Y256000
X288500Y246000
X274000Y153000
X264000Y153000
X210000Y136500
X210000Y126500
T03
X375000Y142000
X375000Y156000
X419500Y162000
X419500Y142000
X428000Y196000
X428000Y216000
T04
X414000Y258000
X404000Y258000
X394000Y258000
X384000Y258000
X374000Y258000
X364000Y258000
X354000Y258000
X344000Y258000
X344000Y288000
X354000Y288000
X364000Y288000
X374000Y288000
X384000Y288000
X394000Y288000
X404000Y288000
X414000Y288000
T05
X273480Y130000
X263480Y130000
X253480Y130000
X243480Y130000
X233480Y130000
X238480Y120000
X248480Y120000
X258480Y120000
X268480Y120000
X278480Y120000
T06
X249500Y153000
X209500Y153000
X231500Y220500
X232000Y238500
X232000Y256500
X232000Y274000
X250500Y302000
X250500Y332000
X210500Y332000
X210500Y302000
X272000Y274000
X272000Y256500
X272000Y238500
X271500Y220500
X331717Y183193
X347071Y189886
X347071Y176500
X331717Y169807
X347071Y163114
T07
X475000Y142000
X475000Y242000
X193181Y237500
X183181Y232500
X193181Y227500
X183181Y222500
X193181Y217500
X183181Y242500
X193181Y247500
X183181Y252500
X142453Y251220
X142453Y261063
X142453Y218937
X142453Y209094
T08
X184500Y163500
X184500Y153500
X184500Y143500
X174500Y138500
X174500Y148500
X174500Y158500
X174500Y302500
X174500Y312500
X174500Y322500
X184500Y327500
X184500Y317500
X184500Y307500
X294000Y311500
X304000Y311500
X304000Y321500
X294000Y321500
X314000Y321500
X324000Y321500
X324000Y311500
X314000Y311500
X334000Y311500
X344000Y311500
X344000Y321500
X334000Y321500
X354000Y321500
X364000Y321500
X364000Y311500
X354000Y311500
X374000Y311500
X374000Y321500
X384000Y321500
X394000Y321500
X394000Y311500
X384000Y311500
X404000Y311500
X414000Y311500
X414000Y321500
X404000Y321500
X424000Y321500
X434000Y321500
X434000Y311500
X424000Y311500
X444000Y311500
X454000Y311500
X454000Y321500
X444000Y321500
X464000Y321500
X474000Y321500
X474000Y311500
X464000Y311500
X484000Y311500
X484000Y321500
T09
X282083Y78937
X272083Y78937
X239917Y78937
X229917Y78937
T10
X347000Y216000
X397000Y216000
T11
X419000Y84000
X432780Y84000
X446559Y84000
X460339Y84000
X474118Y84000
X469500Y364000
X455720Y364000
X441941Y364000
X428161Y364000
X414382Y364000
X264500Y364000
X250720Y364000
X236941Y364000
X223161Y364000
X209382Y364000
T12
X330000Y102500
X390000Y102500
T13
X170012Y205157
X170012Y265000
T14
X225508Y107480
X286492Y107480
T15
X503000Y124000
X503500Y317000
X274500Y316500
T16
X158181Y257500
X158181Y212500
T17
X233500Y95472
X278500Y95472
T18
X149500Y131000
X149500Y171000
X149500Y295000
X149500Y335000
T19
X66300Y46200
X530700Y46200
X585700Y46200
X585700Y404000
X530700Y404000
X66300Y403900
M30
