G75*
%MOIN*%
%OFA0B0*%
%FSLAX25Y25*%
%IPPOS*%
%LPD*%
%AMOC8*
5,1,8,0,0,1.08239X$1,22.5*
%
%ADD10C,0.11427*%
%ADD11C,0.14100*%
%ADD12C,0.07600*%
%ADD13R,0.07600X0.07600*%
%ADD14C,0.09450*%
%ADD15C,0.05915*%
%ADD16C,0.06506*%
%ADD17C,0.10226*%
%ADD18C,0.05856*%
%ADD19C,0.06624*%
%ADD20C,0.13395*%
%ADD21C,0.08000*%
%ADD22R,0.08000X0.08000*%
%ADD23C,0.10049*%
%ADD24C,0.06506*%
%ADD25C,0.13198*%
%ADD26C,0.07100*%
%ADD27C,0.05400*%
%ADD28OC8,0.08000*%
%ADD29C,0.07200*%
%ADD30C,0.13400*%
%ADD31R,0.08600X0.08600*%
%ADD32C,0.08600*%
%ADD33C,0.03300*%
D10*
X0274500Y0316500D03*
X0503500Y0317000D03*
X0503000Y0124000D03*
D11*
X0066300Y0046200D03*
X0530700Y0046200D03*
X0585700Y0046200D03*
X0585700Y0404000D03*
X0530700Y0404000D03*
X0066300Y0403900D03*
D12*
X0389100Y0157200D03*
X0323300Y0116200D03*
D13*
X0323300Y0130200D03*
X0389100Y0177200D03*
D14*
X0402575Y0116700D02*
X0411425Y0116700D01*
X0462575Y0116700D02*
X0471425Y0116700D01*
D15*
X0351128Y0157014D02*
X0345813Y0157014D01*
X0335774Y0163707D02*
X0330459Y0163707D01*
X0330459Y0177093D02*
X0335774Y0177093D01*
X0345813Y0183786D02*
X0351128Y0183786D01*
X0351128Y0170400D02*
X0345813Y0170400D01*
D16*
X0472047Y0142000D02*
X0477953Y0142000D01*
X0477953Y0242000D02*
X0472047Y0242000D01*
D17*
X0286492Y0107480D03*
X0225508Y0107480D03*
D18*
X0238480Y0120000D03*
X0248480Y0120000D03*
X0258480Y0120000D03*
X0268480Y0120000D03*
X0278480Y0120000D03*
X0273480Y0130000D03*
X0263480Y0130000D03*
X0253480Y0130000D03*
X0243480Y0130000D03*
X0233480Y0130000D03*
D19*
X0229917Y0078937D03*
X0239917Y0078937D03*
X0272083Y0078937D03*
X0282083Y0078937D03*
D20*
X0278500Y0095472D03*
X0233500Y0095472D03*
D21*
X0174500Y0138500D03*
X0174500Y0148500D03*
X0174500Y0158500D03*
X0184500Y0153500D03*
X0184500Y0143500D03*
X0184500Y0163500D03*
X0209500Y0153000D03*
X0249500Y0153000D03*
X0193181Y0217500D03*
X0183181Y0222500D03*
X0193181Y0227500D03*
X0183181Y0232500D03*
X0193181Y0237500D03*
X0183181Y0242500D03*
X0193181Y0247500D03*
X0232000Y0238500D03*
X0232000Y0256500D03*
X0232000Y0274000D03*
X0250500Y0302000D03*
X0250500Y0332000D03*
X0210500Y0332000D03*
X0184500Y0327500D03*
X0174500Y0322500D03*
X0174500Y0312500D03*
X0174500Y0302500D03*
X0184500Y0307500D03*
X0184500Y0317500D03*
X0210500Y0302000D03*
X0272000Y0274000D03*
X0272000Y0256500D03*
X0272000Y0238500D03*
X0271500Y0220500D03*
X0231500Y0220500D03*
X0428000Y0216000D03*
X0428000Y0196000D03*
D22*
X0183181Y0252500D03*
D23*
X0170012Y0265000D03*
X0170012Y0205157D03*
D24*
X0142453Y0209094D03*
X0142453Y0218937D03*
X0142453Y0251220D03*
X0142453Y0261063D03*
D25*
X0158181Y0257500D03*
X0158181Y0212500D03*
D26*
X0210000Y0136500D03*
X0210000Y0126500D03*
X0264000Y0153000D03*
X0274000Y0153000D03*
X0288500Y0246000D03*
X0288500Y0256000D03*
X0320000Y0268500D03*
X0320000Y0278500D03*
D27*
X0344000Y0285600D02*
X0344000Y0290400D01*
X0354000Y0290400D02*
X0354000Y0285600D01*
X0364000Y0285600D02*
X0364000Y0290400D01*
X0374000Y0290400D02*
X0374000Y0285600D01*
X0384000Y0285600D02*
X0384000Y0290400D01*
X0394000Y0290400D02*
X0394000Y0285600D01*
X0404000Y0285600D02*
X0404000Y0290400D01*
X0414000Y0290400D02*
X0414000Y0285600D01*
X0414000Y0260400D02*
X0414000Y0255600D01*
X0404000Y0255600D02*
X0404000Y0260400D01*
X0394000Y0260400D02*
X0394000Y0255600D01*
X0384000Y0255600D02*
X0384000Y0260400D01*
X0374000Y0260400D02*
X0374000Y0255600D01*
X0364000Y0255600D02*
X0364000Y0260400D01*
X0354000Y0260400D02*
X0354000Y0255600D01*
X0344000Y0255600D02*
X0344000Y0260400D01*
D28*
X0344000Y0311500D03*
X0334000Y0311500D03*
X0334000Y0321500D03*
X0344000Y0321500D03*
X0354000Y0321500D03*
X0364000Y0321500D03*
X0364000Y0311500D03*
X0354000Y0311500D03*
X0374000Y0311500D03*
X0374000Y0321500D03*
X0384000Y0321500D03*
X0394000Y0321500D03*
X0394000Y0311500D03*
X0384000Y0311500D03*
X0404000Y0311500D03*
X0414000Y0311500D03*
X0414000Y0321500D03*
X0404000Y0321500D03*
X0424000Y0321500D03*
X0434000Y0321500D03*
X0434000Y0311500D03*
X0424000Y0311500D03*
X0444000Y0311500D03*
X0454000Y0311500D03*
X0454000Y0321500D03*
X0444000Y0321500D03*
X0464000Y0321500D03*
X0474000Y0321500D03*
X0474000Y0311500D03*
X0464000Y0311500D03*
X0484000Y0311500D03*
X0484000Y0321500D03*
X0324000Y0321500D03*
X0314000Y0321500D03*
X0314000Y0311500D03*
X0324000Y0311500D03*
X0304000Y0311500D03*
X0294000Y0311500D03*
X0294000Y0321500D03*
X0304000Y0321500D03*
D29*
X0343700Y0216000D02*
X0350300Y0216000D01*
X0393700Y0216000D02*
X0400300Y0216000D01*
D30*
X0149500Y0171000D03*
X0149500Y0131000D03*
X0149500Y0295000D03*
X0149500Y0335000D03*
D31*
X0264500Y0364000D03*
X0440100Y0364500D03*
X0402200Y0070300D03*
D32*
X0415980Y0070300D03*
X0429759Y0070300D03*
X0443539Y0070300D03*
X0457318Y0070300D03*
X0426320Y0364500D03*
X0412541Y0364500D03*
X0398761Y0364500D03*
X0384982Y0364500D03*
X0250720Y0364000D03*
X0236941Y0364000D03*
X0223161Y0364000D03*
X0209382Y0364000D03*
D33*
X0245500Y0296000D03*
X0286500Y0293000D03*
X0307500Y0290000D03*
X0325500Y0260000D03*
X0446500Y0369000D03*
M02*
