G75*
%MOIN*%
%OFA0B0*%
%FSLAX25Y25*%
%IPPOS*%
%LPD*%
%AMOC8*
5,1,8,0,0,1.08239X$1,22.5*
%
%ADD10C,0.00400*%
%ADD11C,0.00600*%
%ADD12C,0.00800*%
%ADD13C,0.05000*%
%ADD14R,0.03000X0.22000*%
%ADD15R,0.03500X0.05000*%
%ADD16C,0.00200*%
%ADD17R,0.04331X0.03150*%
%ADD18R,0.11811X0.03150*%
%ADD19R,0.00787X0.03150*%
%ADD20C,0.00700*%
%ADD21C,0.03000*%
%ADD22R,0.02500X0.14000*%
%ADD23R,0.05500X0.03000*%
%ADD24C,0.00500*%
D10*
X0156200Y0112167D02*
X0156667Y0111700D01*
X0157601Y0111700D01*
X0158068Y0112167D01*
X0158068Y0113101D01*
X0157134Y0113101D01*
X0156200Y0114035D02*
X0156200Y0112167D01*
X0156200Y0114035D02*
X0156667Y0114502D01*
X0157601Y0114502D01*
X0158068Y0114035D01*
X0159147Y0113568D02*
X0160081Y0114502D01*
X0161015Y0113568D01*
X0161015Y0111700D01*
X0162093Y0112167D02*
X0162560Y0111700D01*
X0163494Y0111700D01*
X0163961Y0112167D01*
X0163961Y0114502D01*
X0165040Y0114035D02*
X0165040Y0112167D01*
X0165507Y0111700D01*
X0166441Y0111700D01*
X0166908Y0112167D01*
X0166908Y0113101D01*
X0165974Y0113101D01*
X0166908Y0114035D02*
X0166441Y0114502D01*
X0165507Y0114502D01*
X0165040Y0114035D01*
X0165926Y0116500D02*
X0165926Y0119302D01*
X0164057Y0119302D02*
X0165926Y0116500D01*
X0164057Y0116500D02*
X0164057Y0119302D01*
X0163027Y0119302D02*
X0162093Y0119302D01*
X0162560Y0119302D02*
X0162560Y0116500D01*
X0162093Y0116500D02*
X0163027Y0116500D01*
X0161015Y0116500D02*
X0161015Y0118368D01*
X0160081Y0119302D01*
X0159147Y0118368D01*
X0159147Y0116500D01*
X0158068Y0116500D02*
X0157134Y0117434D01*
X0157601Y0117434D02*
X0156200Y0117434D01*
X0156200Y0116500D02*
X0156200Y0119302D01*
X0157601Y0119302D01*
X0158068Y0118835D01*
X0158068Y0117901D01*
X0157601Y0117434D01*
X0159147Y0117901D02*
X0161015Y0117901D01*
X0162093Y0114502D02*
X0162093Y0112167D01*
X0161015Y0113101D02*
X0159147Y0113101D01*
X0159147Y0113568D02*
X0159147Y0111700D01*
X0167986Y0111700D02*
X0167986Y0114502D01*
X0169854Y0114502D01*
X0168920Y0113101D02*
X0167986Y0113101D01*
X0167986Y0111700D02*
X0169854Y0111700D01*
X0208700Y0081302D02*
X0208700Y0078967D01*
X0209167Y0078500D01*
X0210101Y0078500D01*
X0210568Y0078967D01*
X0210568Y0081302D01*
X0211647Y0080368D02*
X0212581Y0081302D01*
X0212581Y0078500D01*
X0211647Y0078500D02*
X0213515Y0078500D01*
X0213048Y0076502D02*
X0213515Y0076035D01*
X0213515Y0074167D01*
X0213048Y0073700D01*
X0212114Y0073700D01*
X0211647Y0074167D01*
X0211647Y0076035D01*
X0212114Y0076502D01*
X0213048Y0076502D01*
X0214593Y0076502D02*
X0214593Y0073700D01*
X0216461Y0073700D01*
X0215527Y0075101D02*
X0214593Y0075101D01*
X0214593Y0076502D02*
X0216461Y0076502D01*
X0210568Y0076035D02*
X0210568Y0075101D01*
X0210101Y0074634D01*
X0208700Y0074634D01*
X0208700Y0073700D02*
X0208700Y0076502D01*
X0210101Y0076502D01*
X0210568Y0076035D01*
X0304028Y0144301D02*
X0305896Y0144301D01*
X0306974Y0143367D02*
X0306974Y0142900D01*
X0306974Y0143367D02*
X0308843Y0145235D01*
X0308843Y0145702D01*
X0306974Y0145702D01*
X0305429Y0145702D02*
X0304028Y0144301D01*
X0305429Y0142900D02*
X0305429Y0145702D01*
X0309921Y0145235D02*
X0310388Y0145702D01*
X0311322Y0145702D01*
X0311789Y0145235D01*
X0309921Y0143367D01*
X0310388Y0142900D01*
X0311322Y0142900D01*
X0311789Y0143367D01*
X0311789Y0145235D01*
X0312867Y0144768D02*
X0312867Y0143367D01*
X0313334Y0142900D01*
X0314736Y0142900D01*
X0314736Y0144768D01*
X0318760Y0144768D02*
X0319695Y0145702D01*
X0319695Y0142900D01*
X0320629Y0142900D02*
X0318760Y0142900D01*
X0321707Y0143367D02*
X0322174Y0142900D01*
X0323108Y0142900D01*
X0323575Y0143367D01*
X0323575Y0143834D01*
X0323108Y0144301D01*
X0321707Y0144301D01*
X0321707Y0143367D01*
X0321707Y0144301D02*
X0322641Y0145235D01*
X0323575Y0145702D01*
X0324653Y0145702D02*
X0324653Y0143834D01*
X0325588Y0142900D01*
X0326522Y0143834D01*
X0326522Y0145702D01*
X0331807Y0145135D02*
X0331807Y0143267D01*
X0332274Y0142800D01*
X0333208Y0142800D01*
X0333675Y0143267D01*
X0334753Y0143267D02*
X0335221Y0142800D01*
X0336155Y0142800D01*
X0336622Y0143267D01*
X0336622Y0144201D01*
X0336155Y0144668D01*
X0335688Y0144668D01*
X0334753Y0144201D01*
X0334753Y0145602D01*
X0336622Y0145602D01*
X0333675Y0145135D02*
X0333208Y0145602D01*
X0332274Y0145602D01*
X0331807Y0145135D01*
X0309921Y0145235D02*
X0309921Y0143367D01*
X0373135Y0136335D02*
X0373602Y0136802D01*
X0374536Y0136802D01*
X0375003Y0136335D01*
X0375003Y0135868D01*
X0374536Y0135401D01*
X0375003Y0134934D01*
X0375003Y0134467D01*
X0374536Y0134000D01*
X0373602Y0134000D01*
X0373135Y0134467D01*
X0374069Y0135401D02*
X0374536Y0135401D01*
X0376081Y0134467D02*
X0376548Y0134000D01*
X0377483Y0134000D01*
X0377950Y0134467D01*
X0377950Y0134934D01*
X0377483Y0135401D01*
X0377015Y0135401D01*
X0377483Y0135401D02*
X0377950Y0135868D01*
X0377950Y0136335D01*
X0377483Y0136802D01*
X0376548Y0136802D01*
X0376081Y0136335D01*
X0379028Y0136335D02*
X0379495Y0136802D01*
X0380429Y0136802D01*
X0380896Y0136335D01*
X0379028Y0134467D01*
X0379495Y0134000D01*
X0380429Y0134000D01*
X0380896Y0134467D01*
X0380896Y0136335D01*
X0379028Y0136335D02*
X0379028Y0134467D01*
X0384921Y0134467D02*
X0385388Y0134000D01*
X0386789Y0134000D01*
X0386789Y0135868D01*
X0387867Y0135401D02*
X0388802Y0135401D01*
X0389736Y0136802D02*
X0387867Y0136802D01*
X0387867Y0134000D01*
X0384921Y0134467D02*
X0384921Y0135868D01*
X0393760Y0136335D02*
X0394228Y0136802D01*
X0395162Y0136802D01*
X0395629Y0136335D01*
X0395629Y0135868D01*
X0395162Y0135401D01*
X0395629Y0134934D01*
X0395629Y0134467D01*
X0395162Y0134000D01*
X0394228Y0134000D01*
X0393760Y0134467D01*
X0394695Y0135401D02*
X0395162Y0135401D01*
X0396707Y0135401D02*
X0396707Y0136802D01*
X0398575Y0136802D01*
X0398108Y0135868D02*
X0398575Y0135401D01*
X0398575Y0134467D01*
X0398108Y0134000D01*
X0397174Y0134000D01*
X0396707Y0134467D01*
X0396707Y0135401D02*
X0397641Y0135868D01*
X0398108Y0135868D01*
X0399653Y0134934D02*
X0400588Y0134000D01*
X0401522Y0134934D01*
X0401522Y0136802D01*
X0399653Y0136802D02*
X0399653Y0134934D01*
X0390622Y0141567D02*
X0390155Y0141100D01*
X0389221Y0141100D01*
X0388753Y0141567D01*
X0388753Y0142501D01*
X0390155Y0142501D01*
X0390622Y0142034D01*
X0390622Y0141567D01*
X0389688Y0143435D02*
X0390622Y0143902D01*
X0389688Y0143435D02*
X0388753Y0142501D01*
X0387675Y0141567D02*
X0387208Y0141100D01*
X0386274Y0141100D01*
X0385807Y0141567D01*
X0385807Y0143435D01*
X0386274Y0143902D01*
X0387208Y0143902D01*
X0387675Y0143435D01*
X0323522Y0195367D02*
X0323055Y0194900D01*
X0322121Y0194900D01*
X0321653Y0195367D01*
X0322121Y0196301D02*
X0323055Y0196301D01*
X0323522Y0195834D01*
X0323522Y0195367D01*
X0322121Y0196301D02*
X0321653Y0196768D01*
X0321653Y0197235D01*
X0322121Y0197702D01*
X0323055Y0197702D01*
X0323522Y0197235D01*
X0320575Y0197702D02*
X0319641Y0197235D01*
X0318707Y0196301D01*
X0320108Y0196301D01*
X0320575Y0195834D01*
X0320575Y0195367D01*
X0320108Y0194900D01*
X0319174Y0194900D01*
X0318707Y0195367D01*
X0318707Y0196301D01*
X0317629Y0196301D02*
X0316228Y0196301D01*
X0315760Y0196768D01*
X0315760Y0197235D01*
X0316228Y0197702D01*
X0317162Y0197702D01*
X0317629Y0197235D01*
X0317629Y0195367D01*
X0317162Y0194900D01*
X0316228Y0194900D01*
X0315760Y0195367D01*
X0314682Y0195367D02*
X0314215Y0194900D01*
X0313281Y0194900D01*
X0312814Y0195367D01*
X0312814Y0196301D02*
X0313748Y0196768D01*
X0314215Y0196768D01*
X0314682Y0196301D01*
X0314682Y0195367D01*
X0312814Y0196301D02*
X0312814Y0197702D01*
X0314682Y0197702D01*
X0311736Y0197235D02*
X0311269Y0197702D01*
X0310334Y0197702D01*
X0309867Y0197235D01*
X0308789Y0197702D02*
X0308789Y0194900D01*
X0309867Y0194900D02*
X0311736Y0196768D01*
X0311736Y0197235D01*
X0311736Y0194900D02*
X0309867Y0194900D01*
X0307855Y0196768D02*
X0308789Y0197702D01*
X0307855Y0196768D02*
X0306921Y0197702D01*
X0306921Y0194900D01*
X0305843Y0194900D02*
X0303974Y0194900D01*
X0303974Y0197702D01*
X0259622Y0219467D02*
X0259622Y0221335D01*
X0259155Y0221802D01*
X0258221Y0221802D01*
X0257753Y0221335D01*
X0257753Y0220868D01*
X0258221Y0220401D01*
X0259622Y0220401D01*
X0259622Y0219467D02*
X0259155Y0219000D01*
X0258221Y0219000D01*
X0257753Y0219467D01*
X0256747Y0219467D02*
X0256747Y0219000D01*
X0256280Y0219000D01*
X0256280Y0219467D01*
X0256747Y0219467D01*
X0255202Y0219467D02*
X0255202Y0221335D01*
X0254735Y0221802D01*
X0253801Y0221802D01*
X0253334Y0221335D01*
X0253334Y0220868D01*
X0253801Y0220401D01*
X0255202Y0220401D01*
X0255202Y0219467D02*
X0254735Y0219000D01*
X0253801Y0219000D01*
X0253334Y0219467D01*
X0252255Y0220401D02*
X0250387Y0220401D01*
X0251788Y0221802D01*
X0251788Y0219000D01*
X0252288Y0237000D02*
X0252288Y0239802D01*
X0250887Y0238401D01*
X0252755Y0238401D01*
X0253834Y0238868D02*
X0254301Y0238401D01*
X0255702Y0238401D01*
X0255702Y0237467D02*
X0255702Y0239335D01*
X0255235Y0239802D01*
X0254301Y0239802D01*
X0253834Y0239335D01*
X0253834Y0238868D01*
X0253834Y0237467D02*
X0254301Y0237000D01*
X0255235Y0237000D01*
X0255702Y0237467D01*
X0256780Y0237467D02*
X0257247Y0237467D01*
X0257247Y0237000D01*
X0256780Y0237000D01*
X0256780Y0237467D01*
X0258253Y0237467D02*
X0258721Y0237000D01*
X0259655Y0237000D01*
X0260122Y0237467D01*
X0260122Y0239335D01*
X0259655Y0239802D01*
X0258721Y0239802D01*
X0258253Y0239335D01*
X0258253Y0238868D01*
X0258721Y0238401D01*
X0260122Y0238401D01*
X0284200Y0234535D02*
X0284667Y0235002D01*
X0285601Y0235002D01*
X0286068Y0234535D01*
X0284200Y0232667D01*
X0284667Y0232200D01*
X0285601Y0232200D01*
X0286068Y0232667D01*
X0286068Y0234535D01*
X0284200Y0234535D02*
X0284200Y0232667D01*
X0287147Y0232667D02*
X0287614Y0232667D01*
X0287614Y0232200D01*
X0287147Y0232200D01*
X0287147Y0232667D01*
X0288620Y0232200D02*
X0290488Y0232200D01*
X0289554Y0232200D02*
X0289554Y0235002D01*
X0288620Y0234068D01*
X0291566Y0234068D02*
X0291566Y0232667D01*
X0292033Y0232200D01*
X0293435Y0232200D01*
X0293435Y0234068D01*
X0294513Y0233601D02*
X0295447Y0233601D01*
X0294513Y0232200D02*
X0294513Y0235002D01*
X0296381Y0235002D01*
X0291515Y0237200D02*
X0289647Y0237200D01*
X0291515Y0239068D01*
X0291515Y0239535D01*
X0291048Y0240002D01*
X0290114Y0240002D01*
X0289647Y0239535D01*
X0288568Y0239535D02*
X0288101Y0240002D01*
X0287167Y0240002D01*
X0286700Y0239535D01*
X0286700Y0237667D01*
X0287167Y0237200D01*
X0288101Y0237200D01*
X0288568Y0237667D01*
X0260122Y0255467D02*
X0260122Y0257335D01*
X0259655Y0257802D01*
X0258721Y0257802D01*
X0258253Y0257335D01*
X0258253Y0256868D01*
X0258721Y0256401D01*
X0260122Y0256401D01*
X0260122Y0255467D02*
X0259655Y0255000D01*
X0258721Y0255000D01*
X0258253Y0255467D01*
X0257247Y0255467D02*
X0257247Y0255000D01*
X0256780Y0255000D01*
X0256780Y0255467D01*
X0257247Y0255467D01*
X0255702Y0255467D02*
X0255702Y0257335D01*
X0255235Y0257802D01*
X0254301Y0257802D01*
X0253834Y0257335D01*
X0253834Y0256868D01*
X0254301Y0256401D01*
X0255702Y0256401D01*
X0255702Y0255467D02*
X0255235Y0255000D01*
X0254301Y0255000D01*
X0253834Y0255467D01*
X0252755Y0256401D02*
X0250887Y0256401D01*
X0252288Y0257802D01*
X0252288Y0255000D01*
X0252288Y0272500D02*
X0252288Y0275302D01*
X0250887Y0273901D01*
X0252755Y0273901D01*
X0253834Y0274368D02*
X0254301Y0273901D01*
X0255702Y0273901D01*
X0255702Y0272967D02*
X0255702Y0274835D01*
X0255235Y0275302D01*
X0254301Y0275302D01*
X0253834Y0274835D01*
X0253834Y0274368D01*
X0253834Y0272967D02*
X0254301Y0272500D01*
X0255235Y0272500D01*
X0255702Y0272967D01*
X0256780Y0272967D02*
X0257247Y0272967D01*
X0257247Y0272500D01*
X0256780Y0272500D01*
X0256780Y0272967D01*
X0258253Y0272967D02*
X0258721Y0272500D01*
X0259655Y0272500D01*
X0260122Y0272967D01*
X0260122Y0274835D01*
X0259655Y0275302D01*
X0258721Y0275302D01*
X0258253Y0274835D01*
X0258253Y0274368D01*
X0258721Y0273901D01*
X0260122Y0273901D01*
X0349700Y0273502D02*
X0350634Y0272568D01*
X0351568Y0273502D01*
X0351568Y0270700D01*
X0352647Y0271167D02*
X0353114Y0270700D01*
X0354048Y0270700D01*
X0354515Y0271167D01*
X0355593Y0270700D02*
X0355593Y0273502D01*
X0356994Y0273502D01*
X0357461Y0273035D01*
X0357461Y0272101D01*
X0356994Y0271634D01*
X0355593Y0271634D01*
X0354515Y0273035D02*
X0354048Y0273502D01*
X0353114Y0273502D01*
X0352647Y0273035D01*
X0352647Y0271167D01*
X0349700Y0270700D02*
X0349700Y0273502D01*
X0358540Y0273035D02*
X0359007Y0273502D01*
X0359941Y0273502D01*
X0360408Y0273035D01*
X0360408Y0272568D01*
X0359941Y0272101D01*
X0360408Y0271634D01*
X0360408Y0271167D01*
X0359941Y0270700D01*
X0359007Y0270700D01*
X0358540Y0271167D01*
X0359474Y0272101D02*
X0359941Y0272101D01*
X0361486Y0271167D02*
X0363354Y0273035D01*
X0363354Y0271167D01*
X0362887Y0270700D01*
X0361953Y0270700D01*
X0361486Y0271167D01*
X0361486Y0273035D01*
X0361953Y0273502D01*
X0362887Y0273502D01*
X0363354Y0273035D01*
X0364433Y0273035D02*
X0364433Y0271167D01*
X0366301Y0273035D01*
X0366301Y0271167D01*
X0365834Y0270700D01*
X0364900Y0270700D01*
X0364433Y0271167D01*
X0364433Y0273035D02*
X0364900Y0273502D01*
X0365834Y0273502D01*
X0366301Y0273035D01*
X0367379Y0273035D02*
X0367379Y0272568D01*
X0367846Y0272101D01*
X0368780Y0272101D01*
X0369247Y0271634D01*
X0369247Y0271167D01*
X0368780Y0270700D01*
X0367846Y0270700D01*
X0367379Y0271167D01*
X0367379Y0271634D01*
X0367846Y0272101D01*
X0368780Y0272101D02*
X0369247Y0272568D01*
X0369247Y0273035D01*
X0368780Y0273502D01*
X0367846Y0273502D01*
X0367379Y0273035D01*
X0367887Y0201802D02*
X0367887Y0200401D01*
X0368821Y0200868D01*
X0369288Y0200868D01*
X0369755Y0200401D01*
X0369755Y0199467D01*
X0369288Y0199000D01*
X0368354Y0199000D01*
X0367887Y0199467D01*
X0366809Y0199000D02*
X0366809Y0200868D01*
X0365875Y0201802D01*
X0364941Y0200868D01*
X0364941Y0199000D01*
X0363862Y0199467D02*
X0363395Y0199000D01*
X0362461Y0199000D01*
X0361994Y0199467D01*
X0362461Y0200401D02*
X0363395Y0200401D01*
X0363862Y0199934D01*
X0363862Y0199467D01*
X0364941Y0200401D02*
X0366809Y0200401D01*
X0367887Y0201802D02*
X0369755Y0201802D01*
X0370834Y0199467D02*
X0371301Y0199467D01*
X0371301Y0199000D01*
X0370834Y0199000D01*
X0370834Y0199467D01*
X0372307Y0199467D02*
X0374175Y0201335D01*
X0374175Y0199467D01*
X0373708Y0199000D01*
X0372774Y0199000D01*
X0372307Y0199467D01*
X0372307Y0201335D01*
X0372774Y0201802D01*
X0373708Y0201802D01*
X0374175Y0201335D01*
X0375253Y0200868D02*
X0376188Y0201802D01*
X0377122Y0200868D01*
X0377122Y0199000D01*
X0377122Y0200401D02*
X0375253Y0200401D01*
X0375253Y0200868D02*
X0375253Y0199000D01*
X0363862Y0201335D02*
X0363395Y0201802D01*
X0362461Y0201802D01*
X0361994Y0201335D01*
X0361994Y0200868D01*
X0362461Y0200401D01*
X0473698Y0203914D02*
X0476500Y0203914D01*
X0476500Y0202836D02*
X0474632Y0202836D01*
X0475099Y0203914D02*
X0475099Y0205782D01*
X0473698Y0205782D02*
X0476500Y0205782D01*
X0476500Y0202836D02*
X0476500Y0201434D01*
X0476033Y0200967D01*
X0474632Y0200967D01*
X0474632Y0196943D02*
X0475099Y0196476D01*
X0475566Y0196943D01*
X0476033Y0196943D01*
X0476500Y0196476D01*
X0476500Y0195541D01*
X0476033Y0195074D01*
X0476033Y0193996D02*
X0476500Y0193529D01*
X0476500Y0192595D01*
X0476033Y0192128D01*
X0475099Y0193062D02*
X0475099Y0193529D01*
X0475566Y0193996D01*
X0476033Y0193996D01*
X0475099Y0193529D02*
X0474632Y0193996D01*
X0474165Y0193996D01*
X0473698Y0193529D01*
X0473698Y0192595D01*
X0474165Y0192128D01*
X0474165Y0195074D02*
X0473698Y0195541D01*
X0473698Y0196476D01*
X0474165Y0196943D01*
X0474632Y0196943D01*
X0475099Y0196476D02*
X0475099Y0196009D01*
X0476033Y0209807D02*
X0476500Y0210274D01*
X0476500Y0211208D01*
X0476033Y0211675D01*
X0475566Y0211675D01*
X0475099Y0211208D01*
X0475099Y0210741D01*
X0475099Y0211208D02*
X0474632Y0211675D01*
X0474165Y0211675D01*
X0473698Y0211208D01*
X0473698Y0210274D01*
X0474165Y0209807D01*
X0474632Y0212753D02*
X0473698Y0213688D01*
X0474632Y0214622D01*
X0476500Y0214622D01*
X0475099Y0214622D02*
X0475099Y0212753D01*
X0474632Y0212753D02*
X0476500Y0212753D01*
X0462409Y0088868D02*
X0461008Y0088868D01*
X0461008Y0086066D01*
X0461008Y0087000D02*
X0462409Y0087000D01*
X0462876Y0087467D01*
X0462876Y0088401D01*
X0462409Y0088868D01*
X0459930Y0088401D02*
X0459930Y0087000D01*
X0458995Y0087000D02*
X0458995Y0088401D01*
X0459462Y0088868D01*
X0459930Y0088401D01*
X0458995Y0088401D02*
X0458528Y0088868D01*
X0458061Y0088868D01*
X0458061Y0087000D01*
X0456983Y0087934D02*
X0455115Y0087934D01*
X0455115Y0087467D02*
X0455115Y0088401D01*
X0455582Y0088868D01*
X0456516Y0088868D01*
X0456983Y0088401D01*
X0456983Y0087934D01*
X0456516Y0087000D02*
X0455582Y0087000D01*
X0455115Y0087467D01*
X0453102Y0087000D02*
X0453102Y0089802D01*
X0452168Y0089802D02*
X0454037Y0089802D01*
X0447724Y0089802D02*
X0447724Y0087000D01*
X0447257Y0087000D02*
X0448192Y0087000D01*
X0446227Y0087000D02*
X0445293Y0087000D01*
X0445760Y0087000D02*
X0445760Y0088868D01*
X0445293Y0088868D01*
X0445760Y0089802D02*
X0445760Y0090269D01*
X0447257Y0089802D02*
X0447724Y0089802D01*
X0444215Y0088401D02*
X0443748Y0088868D01*
X0442814Y0088868D01*
X0442347Y0088401D01*
X0442347Y0087467D01*
X0442814Y0087000D01*
X0443748Y0087000D01*
X0444215Y0087467D01*
X0444215Y0088401D01*
X0441268Y0087934D02*
X0441268Y0087467D01*
X0440801Y0087000D01*
X0439867Y0087000D01*
X0439400Y0087467D01*
X0439867Y0088401D02*
X0440801Y0088401D01*
X0441268Y0087934D01*
X0441268Y0089335D02*
X0440801Y0089802D01*
X0439867Y0089802D01*
X0439400Y0089335D01*
X0439400Y0088868D01*
X0439867Y0088401D01*
X0166961Y0236500D02*
X0166961Y0239302D01*
X0166961Y0237901D02*
X0165093Y0237901D01*
X0165093Y0236500D02*
X0165093Y0239302D01*
X0164015Y0239302D02*
X0162147Y0239302D01*
X0163081Y0239302D02*
X0163081Y0236500D01*
X0161068Y0236500D02*
X0159200Y0236500D01*
X0159200Y0239302D01*
X0161068Y0239302D01*
X0160134Y0237901D02*
X0159200Y0237901D01*
X0159200Y0241300D02*
X0159200Y0244102D01*
X0160601Y0244102D01*
X0161068Y0243635D01*
X0161068Y0242701D01*
X0160601Y0242234D01*
X0159200Y0242234D01*
X0162147Y0241300D02*
X0163081Y0241300D01*
X0162614Y0241300D02*
X0162614Y0244102D01*
X0162147Y0244102D02*
X0163081Y0244102D01*
X0148015Y0267700D02*
X0146147Y0267700D01*
X0147081Y0267700D02*
X0147081Y0270502D01*
X0146147Y0269568D01*
X0145068Y0270502D02*
X0144134Y0270502D01*
X0144601Y0270502D02*
X0144601Y0268167D01*
X0144134Y0267700D01*
X0143667Y0267700D01*
X0143200Y0268167D01*
X0145667Y0352700D02*
X0145200Y0353167D01*
X0145200Y0353634D01*
X0146134Y0354568D01*
X0146134Y0355035D01*
X0145667Y0355502D01*
X0145200Y0355035D01*
X0145200Y0354568D01*
X0147068Y0352700D01*
X0146134Y0352700D02*
X0145667Y0352700D01*
X0146134Y0352700D02*
X0147068Y0353634D01*
X0147068Y0357500D02*
X0147068Y0360302D01*
X0148147Y0360302D02*
X0149081Y0360302D01*
X0148614Y0360302D02*
X0148614Y0357500D01*
X0148147Y0357500D02*
X0149081Y0357500D01*
X0150111Y0357500D02*
X0150111Y0360302D01*
X0151979Y0357500D01*
X0151979Y0360302D01*
X0153057Y0360302D02*
X0154459Y0360302D01*
X0154926Y0359835D01*
X0154926Y0357967D01*
X0154459Y0357500D01*
X0153057Y0357500D01*
X0153057Y0360302D01*
X0152494Y0355502D02*
X0151560Y0355502D01*
X0151093Y0355035D01*
X0151093Y0354568D01*
X0151560Y0354101D01*
X0152494Y0354101D01*
X0152961Y0353634D01*
X0152961Y0353167D01*
X0152494Y0352700D01*
X0151560Y0352700D01*
X0151093Y0353167D01*
X0152961Y0355035D02*
X0152494Y0355502D01*
X0154040Y0355502D02*
X0155441Y0355502D01*
X0155908Y0355035D01*
X0155908Y0354101D01*
X0155441Y0353634D01*
X0154040Y0353634D01*
X0154040Y0352700D02*
X0154040Y0355502D01*
X0156986Y0355502D02*
X0156986Y0352700D01*
X0158854Y0352700D01*
X0159933Y0352700D02*
X0161801Y0352700D01*
X0162879Y0352700D02*
X0162879Y0355502D01*
X0164280Y0355502D01*
X0164747Y0355035D01*
X0164747Y0353167D01*
X0164280Y0352700D01*
X0162879Y0352700D01*
X0160867Y0354101D02*
X0159933Y0354101D01*
X0159933Y0355502D02*
X0159933Y0352700D01*
X0157920Y0354101D02*
X0156986Y0354101D01*
X0156986Y0355502D02*
X0158854Y0355502D01*
X0159933Y0355502D02*
X0161801Y0355502D01*
X0161897Y0357500D02*
X0162831Y0357500D01*
X0162364Y0357500D02*
X0162364Y0360302D01*
X0161897Y0360302D02*
X0162831Y0360302D01*
X0163861Y0360302D02*
X0165262Y0360302D01*
X0165730Y0359835D01*
X0165730Y0358901D01*
X0165262Y0358434D01*
X0163861Y0358434D01*
X0163861Y0357500D02*
X0163861Y0360302D01*
X0164795Y0358434D02*
X0165730Y0357500D01*
X0160819Y0357967D02*
X0160819Y0359835D01*
X0160352Y0360302D01*
X0158950Y0360302D01*
X0158950Y0357500D01*
X0160352Y0357500D01*
X0160819Y0357967D01*
X0147068Y0357500D02*
X0146134Y0358434D01*
X0145200Y0357500D01*
X0145200Y0360302D01*
X0239744Y0380000D02*
X0239744Y0381868D01*
X0240678Y0382802D01*
X0241612Y0381868D01*
X0241612Y0380000D01*
X0242690Y0380000D02*
X0243624Y0380000D01*
X0243157Y0380000D02*
X0243157Y0381868D01*
X0242690Y0381868D01*
X0243157Y0382802D02*
X0243157Y0383269D01*
X0244655Y0381868D02*
X0244655Y0380000D01*
X0244655Y0380934D02*
X0245589Y0381868D01*
X0246056Y0381868D01*
X0250057Y0381868D02*
X0250991Y0382802D01*
X0251925Y0381868D01*
X0251925Y0380000D01*
X0253003Y0380000D02*
X0253003Y0381868D01*
X0254404Y0381868D01*
X0254871Y0381401D01*
X0254871Y0380000D01*
X0255950Y0380467D02*
X0256417Y0380934D01*
X0257818Y0380934D01*
X0257818Y0381401D02*
X0257818Y0380000D01*
X0256417Y0380000D01*
X0255950Y0380467D01*
X0256417Y0381868D02*
X0257351Y0381868D01*
X0257818Y0381401D01*
X0258896Y0380000D02*
X0259830Y0380000D01*
X0259363Y0380000D02*
X0259363Y0382802D01*
X0258896Y0382802D01*
X0260860Y0381401D02*
X0260860Y0380467D01*
X0261328Y0380000D01*
X0262262Y0380000D01*
X0262729Y0380467D01*
X0262729Y0381401D01*
X0262262Y0381868D01*
X0261328Y0381868D01*
X0260860Y0381401D01*
X0263807Y0381401D02*
X0263807Y0380467D01*
X0264274Y0380000D01*
X0265675Y0380000D01*
X0265675Y0379533D02*
X0265675Y0381868D01*
X0264274Y0381868D01*
X0263807Y0381401D01*
X0264741Y0379066D02*
X0265208Y0379066D01*
X0265675Y0379533D01*
X0266753Y0380000D02*
X0268155Y0380000D01*
X0268622Y0380467D01*
X0268155Y0380934D01*
X0267221Y0380934D01*
X0266753Y0381401D01*
X0267221Y0381868D01*
X0268622Y0381868D01*
X0251925Y0381401D02*
X0250057Y0381401D01*
X0250057Y0381868D02*
X0250057Y0380000D01*
X0241612Y0381401D02*
X0239744Y0381401D01*
X0412844Y0381401D02*
X0414712Y0381401D01*
X0414712Y0381868D02*
X0414712Y0380000D01*
X0415790Y0380000D02*
X0416724Y0380000D01*
X0416257Y0380000D02*
X0416257Y0381868D01*
X0415790Y0381868D01*
X0416257Y0382802D02*
X0416257Y0383269D01*
X0417755Y0381868D02*
X0417755Y0380000D01*
X0417755Y0380934D02*
X0418689Y0381868D01*
X0419156Y0381868D01*
X0423157Y0382802D02*
X0424558Y0382802D01*
X0425025Y0382335D01*
X0425025Y0380467D01*
X0424558Y0380000D01*
X0423157Y0380000D01*
X0423157Y0382802D01*
X0426103Y0381868D02*
X0426570Y0381868D01*
X0426570Y0380000D01*
X0426103Y0380000D02*
X0427037Y0380000D01*
X0428067Y0380467D02*
X0428534Y0380000D01*
X0429936Y0380000D01*
X0429936Y0379533D02*
X0429936Y0381868D01*
X0428534Y0381868D01*
X0428067Y0381401D01*
X0428067Y0380467D01*
X0429002Y0379066D02*
X0429469Y0379066D01*
X0429936Y0379533D01*
X0431014Y0380000D02*
X0431948Y0380000D01*
X0431481Y0380000D02*
X0431481Y0381868D01*
X0431014Y0381868D01*
X0431481Y0382802D02*
X0431481Y0383269D01*
X0432978Y0381868D02*
X0433912Y0381868D01*
X0433445Y0382335D02*
X0433445Y0380467D01*
X0433912Y0380000D01*
X0434943Y0380467D02*
X0435410Y0380934D01*
X0436811Y0380934D01*
X0436811Y0381401D02*
X0436811Y0380000D01*
X0435410Y0380000D01*
X0434943Y0380467D01*
X0435410Y0381868D02*
X0436344Y0381868D01*
X0436811Y0381401D01*
X0437889Y0380000D02*
X0438823Y0380000D01*
X0438356Y0380000D02*
X0438356Y0382802D01*
X0437889Y0382802D01*
X0439853Y0381401D02*
X0440321Y0381868D01*
X0441722Y0381868D01*
X0441255Y0380934D02*
X0440321Y0380934D01*
X0439853Y0381401D01*
X0439853Y0380000D02*
X0441255Y0380000D01*
X0441722Y0380467D01*
X0441255Y0380934D01*
X0426570Y0382802D02*
X0426570Y0383269D01*
X0414712Y0381868D02*
X0413778Y0382802D01*
X0412844Y0381868D01*
X0412844Y0380000D01*
D11*
X0419000Y0284500D02*
X0339000Y0284500D01*
X0339000Y0277000D01*
X0339126Y0276998D01*
X0339251Y0276992D01*
X0339376Y0276982D01*
X0339501Y0276968D01*
X0339626Y0276951D01*
X0339750Y0276929D01*
X0339873Y0276904D01*
X0339995Y0276874D01*
X0340116Y0276841D01*
X0340236Y0276804D01*
X0340355Y0276764D01*
X0340472Y0276719D01*
X0340589Y0276671D01*
X0340703Y0276619D01*
X0340816Y0276564D01*
X0340927Y0276505D01*
X0341036Y0276443D01*
X0341143Y0276377D01*
X0341248Y0276308D01*
X0341351Y0276236D01*
X0341452Y0276161D01*
X0341550Y0276082D01*
X0341645Y0276000D01*
X0341738Y0275916D01*
X0341828Y0275828D01*
X0341916Y0275738D01*
X0342000Y0275645D01*
X0342082Y0275550D01*
X0342161Y0275452D01*
X0342236Y0275351D01*
X0342308Y0275248D01*
X0342377Y0275143D01*
X0342443Y0275036D01*
X0342505Y0274927D01*
X0342564Y0274816D01*
X0342619Y0274703D01*
X0342671Y0274589D01*
X0342719Y0274472D01*
X0342764Y0274355D01*
X0342804Y0274236D01*
X0342841Y0274116D01*
X0342874Y0273995D01*
X0342904Y0273873D01*
X0342929Y0273750D01*
X0342951Y0273626D01*
X0342968Y0273501D01*
X0342982Y0273376D01*
X0342992Y0273251D01*
X0342998Y0273126D01*
X0343000Y0273000D01*
X0342998Y0272874D01*
X0342992Y0272749D01*
X0342982Y0272624D01*
X0342968Y0272499D01*
X0342951Y0272374D01*
X0342929Y0272250D01*
X0342904Y0272127D01*
X0342874Y0272005D01*
X0342841Y0271884D01*
X0342804Y0271764D01*
X0342764Y0271645D01*
X0342719Y0271528D01*
X0342671Y0271411D01*
X0342619Y0271297D01*
X0342564Y0271184D01*
X0342505Y0271073D01*
X0342443Y0270964D01*
X0342377Y0270857D01*
X0342308Y0270752D01*
X0342236Y0270649D01*
X0342161Y0270548D01*
X0342082Y0270450D01*
X0342000Y0270355D01*
X0341916Y0270262D01*
X0341828Y0270172D01*
X0341738Y0270084D01*
X0341645Y0270000D01*
X0341550Y0269918D01*
X0341452Y0269839D01*
X0341351Y0269764D01*
X0341248Y0269692D01*
X0341143Y0269623D01*
X0341036Y0269557D01*
X0340927Y0269495D01*
X0340816Y0269436D01*
X0340703Y0269381D01*
X0340589Y0269329D01*
X0340472Y0269281D01*
X0340355Y0269236D01*
X0340236Y0269196D01*
X0340116Y0269159D01*
X0339995Y0269126D01*
X0339873Y0269096D01*
X0339750Y0269071D01*
X0339626Y0269049D01*
X0339501Y0269032D01*
X0339376Y0269018D01*
X0339251Y0269008D01*
X0339126Y0269002D01*
X0339000Y0269000D01*
X0339000Y0261500D01*
X0419000Y0261500D01*
X0419000Y0284500D01*
X0387000Y0223000D02*
X0357000Y0223000D01*
X0357000Y0209000D01*
X0387000Y0209000D01*
X0387000Y0223000D01*
X0417000Y0127700D02*
X0457000Y0127700D01*
X0457000Y0105700D01*
X0417000Y0105700D01*
X0417000Y0127700D01*
X0432500Y0119000D02*
X0437000Y0116700D01*
X0437000Y0119200D01*
X0435500Y0119200D01*
X0435500Y0118500D01*
X0437000Y0116700D02*
X0428000Y0116700D01*
X0432500Y0114400D02*
X0432500Y0119000D01*
X0432500Y0114400D02*
X0437000Y0116700D01*
X0437000Y0114200D01*
X0438500Y0114200D01*
X0438500Y0114900D01*
X0437000Y0116700D02*
X0442000Y0116700D01*
X0043200Y0198300D02*
X0036795Y0198300D01*
X0036795Y0201503D01*
X0037862Y0202570D01*
X0039997Y0202570D01*
X0041065Y0201503D01*
X0041065Y0198300D01*
X0042132Y0204745D02*
X0043200Y0205813D01*
X0043200Y0207948D01*
X0042132Y0209016D01*
X0039997Y0209016D01*
X0038930Y0207948D01*
X0038930Y0205813D01*
X0039997Y0204745D01*
X0042132Y0204745D01*
X0043200Y0211191D02*
X0043200Y0213326D01*
X0043200Y0212259D02*
X0036795Y0212259D01*
X0036795Y0211191D01*
X0038930Y0215488D02*
X0042132Y0215488D01*
X0043200Y0216556D01*
X0043200Y0219758D01*
X0044268Y0219758D02*
X0045335Y0218691D01*
X0045335Y0217623D01*
X0044268Y0219758D02*
X0038930Y0219758D01*
X0037862Y0221933D02*
X0042132Y0221933D01*
X0043200Y0223001D01*
X0043200Y0225136D01*
X0042132Y0226204D01*
X0042132Y0228379D02*
X0041065Y0229447D01*
X0041065Y0232649D01*
X0039997Y0232649D02*
X0043200Y0232649D01*
X0043200Y0229447D01*
X0042132Y0228379D01*
X0038930Y0229447D02*
X0038930Y0231582D01*
X0039997Y0232649D01*
X0039997Y0234824D02*
X0038930Y0235892D01*
X0038930Y0239095D01*
X0041065Y0238027D02*
X0041065Y0235892D01*
X0039997Y0234824D01*
X0043200Y0234824D02*
X0043200Y0238027D01*
X0042132Y0239095D01*
X0041065Y0238027D01*
X0041065Y0241270D02*
X0041065Y0245540D01*
X0039997Y0245540D01*
X0038930Y0244473D01*
X0038930Y0242338D01*
X0039997Y0241270D01*
X0042132Y0241270D01*
X0043200Y0242338D01*
X0043200Y0244473D01*
X0043200Y0254161D02*
X0036795Y0254161D01*
X0036795Y0258431D02*
X0043200Y0258431D01*
X0041065Y0256296D01*
X0043200Y0254161D01*
X0042132Y0260606D02*
X0037862Y0260606D01*
X0036795Y0261674D01*
X0036795Y0263809D01*
X0037862Y0264877D01*
X0039997Y0267052D02*
X0039997Y0271322D01*
X0037862Y0273497D02*
X0036795Y0274565D01*
X0036795Y0276700D01*
X0037862Y0277768D01*
X0038930Y0277768D01*
X0043200Y0273497D01*
X0043200Y0277768D01*
X0039997Y0279943D02*
X0039997Y0284213D01*
X0039997Y0286388D02*
X0039997Y0288524D01*
X0036795Y0290659D02*
X0036795Y0286388D01*
X0043200Y0286388D01*
X0043200Y0283146D02*
X0036795Y0283146D01*
X0039997Y0279943D01*
X0042132Y0264877D02*
X0043200Y0263809D01*
X0043200Y0261674D01*
X0042132Y0260606D01*
X0037862Y0226204D02*
X0036795Y0225136D01*
X0036795Y0223001D01*
X0037862Y0221933D01*
D12*
X0114087Y0205000D02*
X0146370Y0205000D01*
X0137728Y0205157D02*
X0164500Y0205157D01*
X0175524Y0205157D02*
X0197571Y0205157D01*
X0197551Y0205394D02*
X0197551Y0265000D01*
X0197177Y0265000D02*
X0175524Y0265000D01*
X0164500Y0265000D02*
X0138122Y0265000D01*
X0137709Y0265000D02*
X0137709Y0205000D01*
X0114087Y0205000D02*
X0114087Y0265000D01*
X0146370Y0265000D01*
X0129000Y0288000D02*
X0117500Y0288000D01*
X0117500Y0342000D01*
X0129000Y0342000D01*
X0129000Y0288000D01*
X0190500Y0288000D01*
X0190500Y0342000D01*
X0129000Y0342000D01*
X0200524Y0351598D02*
X0200524Y0355535D01*
X0202492Y0355535D01*
X0202492Y0351598D02*
X0200524Y0351598D01*
X0202492Y0350614D02*
X0202492Y0375024D01*
X0271390Y0375024D01*
X0271390Y0350614D01*
X0202492Y0350614D01*
X0218098Y0336724D02*
X0242902Y0336724D01*
X0242902Y0327276D01*
X0218098Y0327276D01*
X0218098Y0336724D01*
X0218098Y0306724D02*
X0242902Y0306724D01*
X0242902Y0297276D01*
X0218098Y0297276D01*
X0218098Y0306724D01*
X0239598Y0278724D02*
X0264402Y0278724D01*
X0264402Y0269276D01*
X0239598Y0269276D01*
X0239598Y0278724D01*
X0239598Y0261224D02*
X0264402Y0261224D01*
X0264402Y0251776D01*
X0239598Y0251776D01*
X0239598Y0261224D01*
X0239598Y0243224D02*
X0264402Y0243224D01*
X0264402Y0233776D01*
X0239598Y0233776D01*
X0239598Y0243224D01*
X0239098Y0225224D02*
X0263902Y0225224D01*
X0263902Y0215776D01*
X0239098Y0215776D01*
X0239098Y0225224D01*
X0286000Y0251000D02*
X0291000Y0251000D01*
X0317500Y0273500D02*
X0322500Y0273500D01*
X0422000Y0221000D02*
X0434000Y0221000D01*
X0434000Y0191000D01*
X0422000Y0191000D01*
X0422000Y0221000D01*
X0447657Y0227512D02*
X0447657Y0156488D01*
X0502343Y0156488D01*
X0502343Y0227512D01*
X0447657Y0227512D01*
X0369400Y0167200D02*
X0369406Y0167683D01*
X0369424Y0168167D01*
X0369453Y0168649D01*
X0369495Y0169131D01*
X0369548Y0169611D01*
X0369613Y0170091D01*
X0369690Y0170568D01*
X0369779Y0171043D01*
X0369879Y0171516D01*
X0369990Y0171987D01*
X0370114Y0172454D01*
X0370248Y0172919D01*
X0370394Y0173380D01*
X0370552Y0173837D01*
X0370720Y0174290D01*
X0370900Y0174739D01*
X0371090Y0175183D01*
X0371291Y0175623D01*
X0371503Y0176057D01*
X0371726Y0176487D01*
X0371959Y0176910D01*
X0372203Y0177328D01*
X0372456Y0177739D01*
X0372720Y0178145D01*
X0372994Y0178543D01*
X0373277Y0178935D01*
X0373570Y0179320D01*
X0373872Y0179698D01*
X0374183Y0180068D01*
X0374503Y0180430D01*
X0374832Y0180784D01*
X0375170Y0181130D01*
X0375516Y0181468D01*
X0375870Y0181797D01*
X0376232Y0182117D01*
X0376602Y0182428D01*
X0376980Y0182730D01*
X0377365Y0183023D01*
X0377757Y0183306D01*
X0378155Y0183580D01*
X0378561Y0183844D01*
X0378972Y0184097D01*
X0379390Y0184341D01*
X0379813Y0184574D01*
X0380243Y0184797D01*
X0380677Y0185009D01*
X0381117Y0185210D01*
X0381561Y0185400D01*
X0382010Y0185580D01*
X0382463Y0185748D01*
X0382920Y0185906D01*
X0383381Y0186052D01*
X0383846Y0186186D01*
X0384313Y0186310D01*
X0384784Y0186421D01*
X0385257Y0186521D01*
X0385732Y0186610D01*
X0386209Y0186687D01*
X0386689Y0186752D01*
X0387169Y0186805D01*
X0387651Y0186847D01*
X0388133Y0186876D01*
X0388617Y0186894D01*
X0389100Y0186900D01*
X0389583Y0186894D01*
X0390067Y0186876D01*
X0390549Y0186847D01*
X0391031Y0186805D01*
X0391511Y0186752D01*
X0391991Y0186687D01*
X0392468Y0186610D01*
X0392943Y0186521D01*
X0393416Y0186421D01*
X0393887Y0186310D01*
X0394354Y0186186D01*
X0394819Y0186052D01*
X0395280Y0185906D01*
X0395737Y0185748D01*
X0396190Y0185580D01*
X0396639Y0185400D01*
X0397083Y0185210D01*
X0397523Y0185009D01*
X0397957Y0184797D01*
X0398387Y0184574D01*
X0398810Y0184341D01*
X0399228Y0184097D01*
X0399639Y0183844D01*
X0400045Y0183580D01*
X0400443Y0183306D01*
X0400835Y0183023D01*
X0401220Y0182730D01*
X0401598Y0182428D01*
X0401968Y0182117D01*
X0402330Y0181797D01*
X0402684Y0181468D01*
X0403030Y0181130D01*
X0403368Y0180784D01*
X0403697Y0180430D01*
X0404017Y0180068D01*
X0404328Y0179698D01*
X0404630Y0179320D01*
X0404923Y0178935D01*
X0405206Y0178543D01*
X0405480Y0178145D01*
X0405744Y0177739D01*
X0405997Y0177328D01*
X0406241Y0176910D01*
X0406474Y0176487D01*
X0406697Y0176057D01*
X0406909Y0175623D01*
X0407110Y0175183D01*
X0407300Y0174739D01*
X0407480Y0174290D01*
X0407648Y0173837D01*
X0407806Y0173380D01*
X0407952Y0172919D01*
X0408086Y0172454D01*
X0408210Y0171987D01*
X0408321Y0171516D01*
X0408421Y0171043D01*
X0408510Y0170568D01*
X0408587Y0170091D01*
X0408652Y0169611D01*
X0408705Y0169131D01*
X0408747Y0168649D01*
X0408776Y0168167D01*
X0408794Y0167683D01*
X0408800Y0167200D01*
X0408794Y0166717D01*
X0408776Y0166233D01*
X0408747Y0165751D01*
X0408705Y0165269D01*
X0408652Y0164789D01*
X0408587Y0164309D01*
X0408510Y0163832D01*
X0408421Y0163357D01*
X0408321Y0162884D01*
X0408210Y0162413D01*
X0408086Y0161946D01*
X0407952Y0161481D01*
X0407806Y0161020D01*
X0407648Y0160563D01*
X0407480Y0160110D01*
X0407300Y0159661D01*
X0407110Y0159217D01*
X0406909Y0158777D01*
X0406697Y0158343D01*
X0406474Y0157913D01*
X0406241Y0157490D01*
X0405997Y0157072D01*
X0405744Y0156661D01*
X0405480Y0156255D01*
X0405206Y0155857D01*
X0404923Y0155465D01*
X0404630Y0155080D01*
X0404328Y0154702D01*
X0404017Y0154332D01*
X0403697Y0153970D01*
X0403368Y0153616D01*
X0403030Y0153270D01*
X0402684Y0152932D01*
X0402330Y0152603D01*
X0401968Y0152283D01*
X0401598Y0151972D01*
X0401220Y0151670D01*
X0400835Y0151377D01*
X0400443Y0151094D01*
X0400045Y0150820D01*
X0399639Y0150556D01*
X0399228Y0150303D01*
X0398810Y0150059D01*
X0398387Y0149826D01*
X0397957Y0149603D01*
X0397523Y0149391D01*
X0397083Y0149190D01*
X0396639Y0149000D01*
X0396190Y0148820D01*
X0395737Y0148652D01*
X0395280Y0148494D01*
X0394819Y0148348D01*
X0394354Y0148214D01*
X0393887Y0148090D01*
X0393416Y0147979D01*
X0392943Y0147879D01*
X0392468Y0147790D01*
X0391991Y0147713D01*
X0391511Y0147648D01*
X0391031Y0147595D01*
X0390549Y0147553D01*
X0390067Y0147524D01*
X0389583Y0147506D01*
X0389100Y0147500D01*
X0388617Y0147506D01*
X0388133Y0147524D01*
X0387651Y0147553D01*
X0387169Y0147595D01*
X0386689Y0147648D01*
X0386209Y0147713D01*
X0385732Y0147790D01*
X0385257Y0147879D01*
X0384784Y0147979D01*
X0384313Y0148090D01*
X0383846Y0148214D01*
X0383381Y0148348D01*
X0382920Y0148494D01*
X0382463Y0148652D01*
X0382010Y0148820D01*
X0381561Y0149000D01*
X0381117Y0149190D01*
X0380677Y0149391D01*
X0380243Y0149603D01*
X0379813Y0149826D01*
X0379390Y0150059D01*
X0378972Y0150303D01*
X0378561Y0150556D01*
X0378155Y0150820D01*
X0377757Y0151094D01*
X0377365Y0151377D01*
X0376980Y0151670D01*
X0376602Y0151972D01*
X0376232Y0152283D01*
X0375870Y0152603D01*
X0375516Y0152932D01*
X0375170Y0153270D01*
X0374832Y0153616D01*
X0374503Y0153970D01*
X0374183Y0154332D01*
X0373872Y0154702D01*
X0373570Y0155080D01*
X0373277Y0155465D01*
X0372994Y0155857D01*
X0372720Y0156255D01*
X0372456Y0156661D01*
X0372203Y0157072D01*
X0371959Y0157490D01*
X0371726Y0157913D01*
X0371503Y0158343D01*
X0371291Y0158777D01*
X0371090Y0159217D01*
X0370900Y0159661D01*
X0370720Y0160110D01*
X0370552Y0160563D01*
X0370394Y0161020D01*
X0370248Y0161481D01*
X0370114Y0161946D01*
X0369990Y0162413D01*
X0369879Y0162884D01*
X0369779Y0163357D01*
X0369690Y0163832D01*
X0369613Y0164309D01*
X0369548Y0164789D01*
X0369495Y0165269D01*
X0369453Y0165751D01*
X0369424Y0166233D01*
X0369406Y0166717D01*
X0369400Y0167200D01*
X0384100Y0159700D02*
X0384100Y0154700D01*
X0333117Y0152683D02*
X0333117Y0188117D01*
X0329573Y0189691D01*
X0329573Y0151109D01*
X0333117Y0152683D01*
X0329573Y0151109D02*
X0320124Y0151109D01*
X0320124Y0150715D02*
X0320124Y0190085D01*
X0315794Y0190085D01*
X0315794Y0150715D01*
X0320124Y0150715D01*
X0307600Y0123200D02*
X0307605Y0123585D01*
X0307619Y0123970D01*
X0307643Y0124355D01*
X0307676Y0124739D01*
X0307718Y0125122D01*
X0307770Y0125504D01*
X0307831Y0125884D01*
X0307902Y0126263D01*
X0307981Y0126640D01*
X0308071Y0127015D01*
X0308169Y0127387D01*
X0308276Y0127757D01*
X0308392Y0128125D01*
X0308518Y0128489D01*
X0308652Y0128850D01*
X0308795Y0129208D01*
X0308947Y0129562D01*
X0309107Y0129913D01*
X0309276Y0130259D01*
X0309454Y0130601D01*
X0309640Y0130939D01*
X0309834Y0131271D01*
X0310036Y0131599D01*
X0310246Y0131922D01*
X0310464Y0132240D01*
X0310690Y0132552D01*
X0310923Y0132859D01*
X0311164Y0133160D01*
X0311412Y0133455D01*
X0311667Y0133743D01*
X0311929Y0134026D01*
X0312198Y0134302D01*
X0312474Y0134571D01*
X0312757Y0134833D01*
X0313045Y0135088D01*
X0313340Y0135336D01*
X0313641Y0135577D01*
X0313948Y0135810D01*
X0314260Y0136036D01*
X0314578Y0136254D01*
X0314901Y0136464D01*
X0315229Y0136666D01*
X0315561Y0136860D01*
X0315899Y0137046D01*
X0316241Y0137224D01*
X0316587Y0137393D01*
X0316938Y0137553D01*
X0317292Y0137705D01*
X0317650Y0137848D01*
X0318011Y0137982D01*
X0318375Y0138108D01*
X0318743Y0138224D01*
X0319113Y0138331D01*
X0319485Y0138429D01*
X0319860Y0138519D01*
X0320237Y0138598D01*
X0320616Y0138669D01*
X0320996Y0138730D01*
X0321378Y0138782D01*
X0321761Y0138824D01*
X0322145Y0138857D01*
X0322530Y0138881D01*
X0322915Y0138895D01*
X0323300Y0138900D01*
X0323685Y0138895D01*
X0324070Y0138881D01*
X0324455Y0138857D01*
X0324839Y0138824D01*
X0325222Y0138782D01*
X0325604Y0138730D01*
X0325984Y0138669D01*
X0326363Y0138598D01*
X0326740Y0138519D01*
X0327115Y0138429D01*
X0327487Y0138331D01*
X0327857Y0138224D01*
X0328225Y0138108D01*
X0328589Y0137982D01*
X0328950Y0137848D01*
X0329308Y0137705D01*
X0329662Y0137553D01*
X0330013Y0137393D01*
X0330359Y0137224D01*
X0330701Y0137046D01*
X0331039Y0136860D01*
X0331371Y0136666D01*
X0331699Y0136464D01*
X0332022Y0136254D01*
X0332340Y0136036D01*
X0332652Y0135810D01*
X0332959Y0135577D01*
X0333260Y0135336D01*
X0333555Y0135088D01*
X0333843Y0134833D01*
X0334126Y0134571D01*
X0334402Y0134302D01*
X0334671Y0134026D01*
X0334933Y0133743D01*
X0335188Y0133455D01*
X0335436Y0133160D01*
X0335677Y0132859D01*
X0335910Y0132552D01*
X0336136Y0132240D01*
X0336354Y0131922D01*
X0336564Y0131599D01*
X0336766Y0131271D01*
X0336960Y0130939D01*
X0337146Y0130601D01*
X0337324Y0130259D01*
X0337493Y0129913D01*
X0337653Y0129562D01*
X0337805Y0129208D01*
X0337948Y0128850D01*
X0338082Y0128489D01*
X0338208Y0128125D01*
X0338324Y0127757D01*
X0338431Y0127387D01*
X0338529Y0127015D01*
X0338619Y0126640D01*
X0338698Y0126263D01*
X0338769Y0125884D01*
X0338830Y0125504D01*
X0338882Y0125122D01*
X0338924Y0124739D01*
X0338957Y0124355D01*
X0338981Y0123970D01*
X0338995Y0123585D01*
X0339000Y0123200D01*
X0338995Y0122815D01*
X0338981Y0122430D01*
X0338957Y0122045D01*
X0338924Y0121661D01*
X0338882Y0121278D01*
X0338830Y0120896D01*
X0338769Y0120516D01*
X0338698Y0120137D01*
X0338619Y0119760D01*
X0338529Y0119385D01*
X0338431Y0119013D01*
X0338324Y0118643D01*
X0338208Y0118275D01*
X0338082Y0117911D01*
X0337948Y0117550D01*
X0337805Y0117192D01*
X0337653Y0116838D01*
X0337493Y0116487D01*
X0337324Y0116141D01*
X0337146Y0115799D01*
X0336960Y0115461D01*
X0336766Y0115129D01*
X0336564Y0114801D01*
X0336354Y0114478D01*
X0336136Y0114160D01*
X0335910Y0113848D01*
X0335677Y0113541D01*
X0335436Y0113240D01*
X0335188Y0112945D01*
X0334933Y0112657D01*
X0334671Y0112374D01*
X0334402Y0112098D01*
X0334126Y0111829D01*
X0333843Y0111567D01*
X0333555Y0111312D01*
X0333260Y0111064D01*
X0332959Y0110823D01*
X0332652Y0110590D01*
X0332340Y0110364D01*
X0332022Y0110146D01*
X0331699Y0109936D01*
X0331371Y0109734D01*
X0331039Y0109540D01*
X0330701Y0109354D01*
X0330359Y0109176D01*
X0330013Y0109007D01*
X0329662Y0108847D01*
X0329308Y0108695D01*
X0328950Y0108552D01*
X0328589Y0108418D01*
X0328225Y0108292D01*
X0327857Y0108176D01*
X0327487Y0108069D01*
X0327115Y0107971D01*
X0326740Y0107881D01*
X0326363Y0107802D01*
X0325984Y0107731D01*
X0325604Y0107670D01*
X0325222Y0107618D01*
X0324839Y0107576D01*
X0324455Y0107543D01*
X0324070Y0107519D01*
X0323685Y0107505D01*
X0323300Y0107500D01*
X0322915Y0107505D01*
X0322530Y0107519D01*
X0322145Y0107543D01*
X0321761Y0107576D01*
X0321378Y0107618D01*
X0320996Y0107670D01*
X0320616Y0107731D01*
X0320237Y0107802D01*
X0319860Y0107881D01*
X0319485Y0107971D01*
X0319113Y0108069D01*
X0318743Y0108176D01*
X0318375Y0108292D01*
X0318011Y0108418D01*
X0317650Y0108552D01*
X0317292Y0108695D01*
X0316938Y0108847D01*
X0316587Y0109007D01*
X0316241Y0109176D01*
X0315899Y0109354D01*
X0315561Y0109540D01*
X0315229Y0109734D01*
X0314901Y0109936D01*
X0314578Y0110146D01*
X0314260Y0110364D01*
X0313948Y0110590D01*
X0313641Y0110823D01*
X0313340Y0111064D01*
X0313045Y0111312D01*
X0312757Y0111567D01*
X0312474Y0111829D01*
X0312198Y0112098D01*
X0311929Y0112374D01*
X0311667Y0112657D01*
X0311412Y0112945D01*
X0311164Y0113240D01*
X0310923Y0113541D01*
X0310690Y0113848D01*
X0310464Y0114160D01*
X0310246Y0114478D01*
X0310036Y0114801D01*
X0309834Y0115129D01*
X0309640Y0115461D01*
X0309454Y0115799D01*
X0309276Y0116141D01*
X0309107Y0116487D01*
X0308947Y0116838D01*
X0308795Y0117192D01*
X0308652Y0117550D01*
X0308518Y0117911D01*
X0308392Y0118275D01*
X0308276Y0118643D01*
X0308169Y0119013D01*
X0308071Y0119385D01*
X0307981Y0119760D01*
X0307902Y0120137D01*
X0307831Y0120516D01*
X0307770Y0120896D01*
X0307718Y0121278D01*
X0307676Y0121661D01*
X0307643Y0122045D01*
X0307619Y0122430D01*
X0307605Y0122815D01*
X0307600Y0123200D01*
X0318300Y0120700D02*
X0318300Y0115700D01*
X0269000Y0150500D02*
X0269000Y0155500D01*
X0241902Y0157724D02*
X0241902Y0148276D01*
X0217098Y0148276D01*
X0217098Y0157724D01*
X0241902Y0157724D01*
X0212500Y0131500D02*
X0207500Y0131500D01*
X0190500Y0124000D02*
X0190500Y0178000D01*
X0129000Y0178000D01*
X0117500Y0178000D01*
X0117500Y0124000D01*
X0129000Y0124000D01*
X0129000Y0178000D01*
X0129000Y0124000D02*
X0190500Y0124000D01*
X0320124Y0189691D02*
X0329573Y0189691D01*
X0395310Y0083686D02*
X0395310Y0059276D01*
X0464208Y0059276D01*
X0464208Y0056127D01*
X0395310Y0056127D01*
X0395310Y0059276D01*
X0395310Y0061048D02*
X0393342Y0061048D01*
X0393342Y0064985D01*
X0395310Y0064985D01*
X0395310Y0083686D02*
X0464208Y0083686D01*
X0464208Y0059276D01*
X0464208Y0078765D02*
X0466176Y0078765D01*
X0466176Y0082702D01*
X0464208Y0082702D01*
X0446990Y0351114D02*
X0378092Y0351114D01*
X0378092Y0375524D01*
X0446990Y0375524D01*
X0446990Y0351114D01*
X0446990Y0369815D02*
X0448958Y0369815D01*
X0448958Y0373752D01*
X0446990Y0373752D01*
X0446990Y0375524D02*
X0446990Y0378673D01*
X0378092Y0378673D01*
X0378092Y0375524D01*
X0378092Y0356035D02*
X0376124Y0356035D01*
X0376124Y0352098D01*
X0378092Y0352098D01*
X0273358Y0369315D02*
X0273358Y0373252D01*
X0271390Y0373252D01*
X0271390Y0375024D02*
X0271390Y0378173D01*
X0202492Y0378173D01*
X0202492Y0375024D01*
X0271390Y0369315D02*
X0273358Y0369315D01*
D13*
X0407000Y0116700D02*
X0412500Y0116700D01*
X0461500Y0116700D02*
X0467000Y0116700D01*
D14*
X0452000Y0116700D03*
D15*
X0458750Y0116700D03*
X0415250Y0116700D03*
D16*
X0320006Y0163038D02*
X0319337Y0163038D01*
X0318943Y0163038D02*
X0318550Y0163038D01*
X0318156Y0163038D02*
X0317762Y0163038D01*
X0317369Y0163038D02*
X0316975Y0163038D01*
X0316581Y0163038D02*
X0316187Y0163038D01*
X0316187Y0177762D02*
X0316581Y0177762D01*
X0316975Y0177762D02*
X0317369Y0177762D01*
X0317762Y0177762D02*
X0318156Y0177762D01*
X0318550Y0177762D02*
X0318943Y0177762D01*
X0319337Y0177762D02*
X0320006Y0177762D01*
D17*
X0347093Y0183786D03*
X0347093Y0170400D03*
X0347093Y0157014D03*
D18*
X0339022Y0157014D03*
X0339022Y0170400D03*
X0339022Y0183786D03*
D19*
X0333510Y0177093D03*
X0333510Y0163707D03*
D20*
X0287693Y0137520D02*
X0287693Y0113504D01*
X0287693Y0101693D02*
X0287693Y0052480D01*
X0224307Y0052480D01*
X0224307Y0101693D01*
X0224307Y0113504D02*
X0224307Y0137520D01*
X0287693Y0137520D01*
X0292377Y0079331D02*
X0292269Y0079233D01*
X0292164Y0079133D01*
X0292061Y0079030D01*
X0291961Y0078924D01*
X0291864Y0078815D01*
X0291770Y0078704D01*
X0291678Y0078591D01*
X0291590Y0078475D01*
X0291505Y0078357D01*
X0291422Y0078237D01*
X0291343Y0078114D01*
X0291267Y0077990D01*
X0291195Y0077864D01*
X0291125Y0077736D01*
X0291060Y0077606D01*
X0290997Y0077474D01*
X0290938Y0077341D01*
X0290882Y0077206D01*
X0290830Y0077070D01*
X0290782Y0076933D01*
X0290737Y0076794D01*
X0290696Y0076655D01*
X0290658Y0076514D01*
X0290624Y0076372D01*
X0290594Y0076230D01*
X0290567Y0076087D01*
X0290545Y0075943D01*
X0290526Y0075798D01*
X0290510Y0075653D01*
X0290499Y0075508D01*
X0290491Y0075363D01*
X0290488Y0075217D01*
X0290487Y0075071D01*
X0290491Y0074926D01*
X0290499Y0074780D01*
X0290510Y0074635D01*
X0290525Y0074490D01*
X0290544Y0074346D01*
X0290567Y0074202D01*
X0290593Y0074059D01*
X0290594Y0074058D02*
X0292772Y0058346D01*
X0292780Y0058201D01*
X0292785Y0058055D01*
X0292786Y0057908D01*
X0292783Y0057762D01*
X0292776Y0057617D01*
X0292765Y0057471D01*
X0292750Y0057326D01*
X0292731Y0057181D01*
X0292709Y0057036D01*
X0292683Y0056893D01*
X0292652Y0056750D01*
X0292619Y0056608D01*
X0292581Y0056467D01*
X0292539Y0056327D01*
X0292494Y0056188D01*
X0292445Y0056050D01*
X0292393Y0055914D01*
X0292337Y0055779D01*
X0292277Y0055645D01*
X0292214Y0055514D01*
X0292147Y0055384D01*
X0292077Y0055256D01*
X0292004Y0055129D01*
X0291927Y0055005D01*
X0291847Y0054883D01*
X0291763Y0054763D01*
X0291677Y0054645D01*
X0291587Y0054530D01*
X0291495Y0054417D01*
X0291399Y0054307D01*
X0291301Y0054199D01*
X0291199Y0054094D01*
X0291095Y0053991D01*
X0290988Y0053891D01*
X0290879Y0053795D01*
X0290767Y0053701D01*
X0290653Y0053610D01*
X0290536Y0053522D01*
X0290417Y0053438D01*
X0290295Y0053356D01*
X0290172Y0053278D01*
X0290047Y0053203D01*
X0289919Y0053132D01*
X0289790Y0053064D01*
X0289659Y0052999D01*
X0289526Y0052938D01*
X0289392Y0052881D01*
X0289256Y0052827D01*
X0289119Y0052777D01*
X0288981Y0052730D01*
X0288841Y0052687D01*
X0288700Y0052648D01*
X0288559Y0052613D01*
X0288416Y0052581D01*
X0288273Y0052553D01*
X0288128Y0052529D01*
X0287984Y0052509D01*
X0287839Y0052493D01*
X0287693Y0052480D01*
X0224307Y0052480D02*
X0224161Y0052493D01*
X0224016Y0052509D01*
X0223872Y0052529D01*
X0223727Y0052553D01*
X0223584Y0052581D01*
X0223441Y0052613D01*
X0223300Y0052648D01*
X0223159Y0052687D01*
X0223019Y0052730D01*
X0222881Y0052777D01*
X0222744Y0052827D01*
X0222608Y0052881D01*
X0222474Y0052938D01*
X0222341Y0052999D01*
X0222210Y0053064D01*
X0222081Y0053132D01*
X0221953Y0053203D01*
X0221828Y0053278D01*
X0221705Y0053356D01*
X0221583Y0053438D01*
X0221464Y0053522D01*
X0221347Y0053610D01*
X0221233Y0053701D01*
X0221121Y0053795D01*
X0221012Y0053891D01*
X0220905Y0053991D01*
X0220801Y0054094D01*
X0220699Y0054199D01*
X0220601Y0054307D01*
X0220505Y0054417D01*
X0220413Y0054530D01*
X0220323Y0054645D01*
X0220237Y0054763D01*
X0220153Y0054883D01*
X0220073Y0055005D01*
X0219996Y0055129D01*
X0219923Y0055256D01*
X0219853Y0055384D01*
X0219786Y0055514D01*
X0219723Y0055645D01*
X0219663Y0055779D01*
X0219607Y0055914D01*
X0219555Y0056050D01*
X0219506Y0056188D01*
X0219461Y0056327D01*
X0219419Y0056467D01*
X0219381Y0056608D01*
X0219348Y0056750D01*
X0219317Y0056893D01*
X0219291Y0057036D01*
X0219269Y0057181D01*
X0219250Y0057326D01*
X0219235Y0057471D01*
X0219224Y0057617D01*
X0219217Y0057762D01*
X0219214Y0057908D01*
X0219215Y0058055D01*
X0219220Y0058201D01*
X0219228Y0058346D01*
X0221406Y0074058D01*
X0221407Y0074059D02*
X0221433Y0074202D01*
X0221456Y0074346D01*
X0221475Y0074490D01*
X0221490Y0074635D01*
X0221501Y0074780D01*
X0221509Y0074926D01*
X0221513Y0075071D01*
X0221512Y0075217D01*
X0221509Y0075363D01*
X0221501Y0075508D01*
X0221490Y0075653D01*
X0221474Y0075798D01*
X0221455Y0075943D01*
X0221433Y0076087D01*
X0221406Y0076230D01*
X0221376Y0076372D01*
X0221342Y0076514D01*
X0221304Y0076655D01*
X0221263Y0076794D01*
X0221218Y0076933D01*
X0221170Y0077070D01*
X0221118Y0077206D01*
X0221062Y0077341D01*
X0221003Y0077474D01*
X0220940Y0077606D01*
X0220875Y0077736D01*
X0220805Y0077864D01*
X0220733Y0077990D01*
X0220657Y0078114D01*
X0220578Y0078237D01*
X0220495Y0078357D01*
X0220410Y0078475D01*
X0220322Y0078591D01*
X0220230Y0078704D01*
X0220136Y0078815D01*
X0220039Y0078924D01*
X0219939Y0079030D01*
X0219836Y0079133D01*
X0219731Y0079233D01*
X0219623Y0079331D01*
D21*
X0347000Y0216000D02*
X0351000Y0216000D01*
X0393000Y0216000D02*
X0397000Y0216000D01*
D22*
X0382750Y0216000D03*
D23*
X0389750Y0216000D03*
X0354250Y0216000D03*
D24*
X0233994Y0162552D02*
X0232643Y0161651D01*
X0233994Y0160750D01*
X0232643Y0160750D02*
X0232643Y0163452D01*
X0231498Y0163002D02*
X0229697Y0161200D01*
X0230147Y0160750D01*
X0231048Y0160750D01*
X0231498Y0161200D01*
X0231498Y0163002D01*
X0231048Y0163452D01*
X0230147Y0163452D01*
X0229697Y0163002D01*
X0229697Y0161200D01*
X0228552Y0160750D02*
X0226750Y0160750D01*
X0227651Y0160750D02*
X0227651Y0163452D01*
X0226750Y0162552D01*
X0226048Y0300750D02*
X0225147Y0300750D01*
X0224697Y0301200D01*
X0226498Y0303002D01*
X0226498Y0301200D01*
X0226048Y0300750D01*
X0224697Y0301200D02*
X0224697Y0303002D01*
X0225147Y0303452D01*
X0226048Y0303452D01*
X0226498Y0303002D01*
X0227643Y0303452D02*
X0227643Y0300750D01*
X0227643Y0301651D02*
X0229445Y0303452D01*
X0228093Y0302101D02*
X0229445Y0300750D01*
X0223552Y0300750D02*
X0221750Y0300750D01*
X0222651Y0300750D02*
X0222651Y0303452D01*
X0221750Y0302552D01*
X0230250Y0339250D02*
X0232052Y0339250D01*
X0231151Y0339250D02*
X0231151Y0341952D01*
X0230250Y0341052D01*
X0233197Y0341502D02*
X0233197Y0339700D01*
X0234998Y0341502D01*
X0234998Y0339700D01*
X0234548Y0339250D01*
X0233647Y0339250D01*
X0233197Y0339700D01*
X0233197Y0341502D02*
X0233647Y0341952D01*
X0234548Y0341952D01*
X0234998Y0341502D01*
X0236143Y0341952D02*
X0236143Y0339250D01*
X0236143Y0340151D02*
X0237494Y0341052D01*
X0236143Y0340151D02*
X0237494Y0339250D01*
M02*
